<?xml version="1.0" encoding="UTF-8"?>
<svg xmlns="http://www.w3.org/2000/svg" xmlns:xlink="http://www.w3.org/1999/xlink" width="76pt" height="58pt" viewBox="0 0 76 58" version="1.1">
<g id="surface1">
<path style=" stroke:none;fill-rule:evenodd;fill:rgb(17.999268%,18.798828%,57.299805%);fill-opacity:1;" d="M 50.140625 33.289063 L 50.15625 33.230469 Z M 44.886719 37.347656 C 43.074219 37.347656 44.253906 33.34375 44.570313 32.445313 C 44.90625 31.484375 45.824219 29.496094 46.617188 28.90625 C 47.527344 28.226563 48.53125 28.230469 49.621094 28.390625 C 49.863281 28.421875 50.90625 28.644531 51.140625 28.757813 L 50.761719 30.65625 L 50.140625 31.902344 C 49.929688 32.304688 49.320313 33.285156 49.066406 33.628906 L 47.863281 35.179688 L 46.742188 36.398438 C 46.347656 36.789063 45.441406 37.347656 44.886719 37.347656 Z M 50.140625 33.289063 C 50.140625 33.46875 49.886719 34.675781 49.832031 34.957031 C 49.722656 35.507813 49.628906 36.046875 49.511719 36.609375 C 49.289063 37.714844 49.589844 39.042969 50.890625 39.046875 C 52.15625 39.050781 53.296875 38.257813 54.097656 37.578125 C 54.382813 37.339844 54.46875 37.230469 54.734375 36.96875 C 54.824219 36.878906 55.144531 36.503906 55.175781 36.40625 C 55.203125 36.335938 55.3125 35.644531 55.3125 35.542969 L 54.660156 36.222656 C 54.65625 36.226563 54.652344 36.234375 54.648438 36.238281 C 54.617188 36.265625 54.648438 36.242188 54.605469 36.28125 C 54.242188 36.59375 53.945313 36.929688 53.5 37.230469 C 53.125 37.488281 52.34375 38.042969 51.867188 37.761719 C 51.367188 37.46875 51.675781 36.304688 51.761719 35.882813 C 51.820313 35.574219 51.898438 35.25 51.964844 34.917969 C 52.285156 33.296875 52.660156 31.691406 52.980469 30.09375 L 53.589844 27.171875 C 53.277344 27.171875 52.945313 27.121094 52.753906 27.117188 C 51.535156 27.054688 50.257813 26.996094 49.046875 27.191406 C 48.355469 27.304688 47.75 27.476563 47.1875 27.71875 C 46.746094 27.910156 46.226563 28.203125 45.84375 28.492188 L 45.347656 28.886719 C 44.84375 29.261719 44.195313 29.894531 43.820313 30.359375 C 42.808594 31.617188 42.195313 32.78125 41.820313 34.367188 C 41.542969 35.554688 41.480469 37.242188 42.28125 38.316406 C 43.1875 39.527344 44.582031 39.066406 45.671875 38.414063 C 45.976563 38.234375 46.253906 38.007813 46.527344 37.792969 C 46.59375 37.742188 46.625 37.703125 46.691406 37.652344 C 47.046875 37.363281 47.292969 37.097656 47.617188 36.773438 L 48.1875 36.144531 C 48.722656 35.511719 49.605469 34.265625 50.019531 33.472656 C 50.070313 33.378906 50.0625 33.34375 50.140625 33.289063 "/>
<path style=" stroke:none;fill-rule:evenodd;fill:rgb(17.999268%,18.798828%,57.299805%);fill-opacity:1;" d="M 21.589844 24.613281 L 19.683594 24.597656 L 19.683594 23.472656 L 21.808594 23.460938 C 21.8125 23.269531 21.886719 22.996094 21.921875 22.808594 C 22.25 21.164063 22.214844 20.140625 23.285156 18.808594 C 24.070313 17.839844 25.410156 17.515625 26.628906 17.875 C 26.84375 17.941406 27.003906 18.007813 27.183594 18.101563 L 27.703125 18.359375 L 29.351563 16.726563 C 29.195313 16.714844 28.925781 16.660156 28.78125 16.644531 C 26.867188 16.542969 25.160156 16.683594 23.46875 17.707031 C 21.570313 18.855469 20.207031 20.945313 19.738281 23.097656 C 19.636719 23.5625 19.695313 23.457031 19.476563 23.449219 L 16.855469 23.445313 C 16.710938 23.449219 16.71875 23.464844 16.71875 23.609375 L 16.722656 24.613281 L 19.445313 24.613281 C 19.445313 24.773438 19.265625 25.683594 19.222656 25.921875 C 19.152344 26.351563 19.074219 26.777344 18.992188 27.21875 C 18.667969 28.910156 18.394531 30.757813 18.0625 32.433594 C 17.976563 32.871094 17.90625 33.296875 17.832031 33.734375 C 17.761719 34.171875 17.675781 34.605469 17.59375 35.050781 C 17.179688 37.367188 16.914063 40.597656 14.269531 40.925781 C 13.195313 41.0625 12.496094 40.78125 11.605469 40.574219 L 11.277344 40.96875 C 11.164063 41.105469 11.042969 41.222656 10.925781 41.367188 L 10.332031 42.050781 C 10.257813 42.148438 10.230469 42.148438 10.21875 42.277344 C 11.597656 42.277344 12.988281 42.449219 14.308594 41.96875 C 14.417969 41.925781 14.515625 41.890625 14.628906 41.84375 C 15.304688 41.578125 15.785156 41.242188 16.335938 40.800781 L 16.792969 40.367188 C 16.929688 40.191406 17.1875 39.929688 17.429688 39.613281 C 17.566406 39.433594 17.675781 39.253906 17.800781 39.066406 C 17.925781 38.882813 18.019531 38.707031 18.132813 38.507813 C 19.125 36.726563 19.753906 34.308594 20.148438 32.324219 C 20.246094 31.832031 20.359375 31.289063 20.445313 30.785156 C 20.695313 29.265625 21.042969 27.671875 21.300781 26.164063 L 21.589844 24.613281 "/>
<path style=" stroke:none;fill-rule:evenodd;fill:rgb(95.298767%,43.899536%,19.599915%);fill-opacity:1;" d="M 21.589844 24.613281 L 65.40625 24.613281 L 65.878906 23.449219 L 57.84375 23.4375 L 57.453125 23.457031 C 57.109375 23.414063 39.714844 23.449219 39.601563 23.449219 C 34.035156 23.449219 28.464844 23.449219 22.894531 23.449219 C 22.578125 23.449219 22.039063 23.472656 21.808594 23.460938 L 19.683594 23.472656 L 19.683594 24.597656 L 21.589844 24.613281 "/>
<path style=" stroke:none;fill-rule:evenodd;fill:rgb(95.298767%,43.899536%,19.599915%);fill-opacity:1;" d="M 58.121094 28.089844 C 58.476563 28.089844 58.863281 28.066406 59.140625 28.347656 C 59.613281 28.824219 59.3125 29.746094 59.210938 30.292969 C 59.136719 30.691406 59.074219 31.042969 58.992188 31.4375 L 58.34375 34.847656 C 58.21875 35.472656 57.730469 37.863281 57.730469 38.320313 C 57.730469 38.972656 57.777344 39.660156 58.238281 40.125 C 58.6875 40.574219 59.035156 40.714844 59.730469 40.714844 C 60.679688 40.714844 61.796875 40.113281 62.535156 39.621094 L 64.167969 38.335938 C 64.207031 38.242188 64.179688 37.535156 64.179688 37.375 C 64.050781 37.410156 63.929688 37.613281 63.769531 37.742188 C 63.253906 38.152344 63.078125 38.375 62.398438 38.789063 C 62.003906 39.027344 61.113281 39.460938 60.71875 38.972656 C 60.355469 38.523438 60.535156 37.683594 60.640625 37.171875 L 62.984375 25.589844 C 62.847656 25.652344 62.609375 25.710938 62.441406 25.765625 C 61.550781 26.0625 60.558594 26.34375 59.671875 26.640625 L 56.90625 27.519531 C 56.613281 27.601563 56.4375 27.625 56.421875 27.785156 C 56.347656 28.613281 56.328125 28.53125 56.613281 28.445313 C 56.703125 28.421875 56.820313 28.394531 56.921875 28.363281 C 57.148438 28.300781 57.910156 28.089844 58.121094 28.089844 "/>
<path style=" stroke:none;fill-rule:evenodd;fill:rgb(17.999268%,18.798828%,57.299805%);fill-opacity:1;" d="M 33.375 30.371094 C 33.375 31.308594 33.664063 31.933594 34.21875 32.476563 L 35.796875 34.261719 C 36.054688 34.582031 36.300781 34.742188 36.535156 35.21875 C 37.082031 36.308594 36.816406 37.488281 35.507813 37.78125 C 35.199219 37.851563 34.988281 37.828125 34.683594 37.820313 C 34.242188 37.808594 33.648438 37.601563 33.253906 37.445313 C 32.636719 37.199219 32.546875 37.085938 32.042969 36.820313 C 31.945313 36.96875 31.296875 37.59375 31.160156 37.746094 L 30.621094 38.320313 C 30.859375 38.445313 31.742188 38.707031 31.992188 38.761719 C 33.773438 39.136719 35.5 39.035156 37 38 C 37.347656 37.761719 37.8125 37.304688 38.027344 36.941406 C 38.171875 36.695313 38.265625 36.546875 38.363281 36.246094 C 38.675781 35.296875 38.480469 34.3125 37.882813 33.566406 L 36.054688 31.332031 C 35.835938 31.054688 35.507813 30.710938 35.359375 30.414063 C 35.164063 30.019531 35.011719 29.675781 35.070313 29.117188 C 35.164063 28.234375 36.171875 27.730469 36.933594 27.730469 C 37.285156 27.730469 37.5625 27.71875 37.90625 27.84375 C 38.40625 28.023438 38.9375 28.421875 38.9375 29.035156 C 38.9375 29.488281 38.902344 29.386719 38.878906 29.648438 L 39.574219 29.648438 C 39.636719 29.519531 39.820313 28.683594 39.859375 28.488281 L 40.132813 27.285156 C 39.871094 27.222656 39.6875 27.089844 39.09375 26.984375 C 37.90625 26.78125 36.808594 26.875 35.710938 27.367188 C 35.316406 27.542969 34.800781 27.84375 34.496094 28.152344 L 34.242188 28.402344 C 33.757813 28.957031 33.375 29.539063 33.375 30.371094 "/>
<path style=" stroke:none;fill-rule:evenodd;fill:rgb(17.999268%,18.798828%,57.299805%);fill-opacity:1;" d="M 23.5625 30.453125 C 23.5625 31.039063 23.773438 31.714844 24.128906 32.167969 L 25.464844 33.667969 C 25.515625 33.734375 25.542969 33.753906 25.597656 33.808594 L 26.28125 34.574219 C 26.574219 34.867188 27.011719 35.582031 27.011719 36.152344 C 27.011719 36.699219 26.863281 37.15625 26.46875 37.449219 C 25.429688 38.230469 23.921875 37.707031 22.902344 37.199219 C 22.785156 37.144531 22.699219 37.089844 22.578125 37.023438 C 22.476563 36.96875 22.363281 36.875 22.253906 36.847656 L 21.179688 37.945313 C 21.039063 38.132813 20.871094 38.226563 20.835938 38.347656 C 20.957031 38.375 21.046875 38.417969 21.148438 38.457031 C 21.257813 38.5 21.375 38.535156 21.480469 38.566406 C 23.277344 39.171875 25.660156 39.144531 27.179688 38.019531 C 27.578125 37.726563 27.902344 37.4375 28.179688 37.023438 C 28.933594 35.910156 28.878906 34.597656 28.066406 33.539063 L 25.734375 30.699219 C 25.628906 30.578125 25.585938 30.492188 25.515625 30.335938 C 25.351563 29.972656 25.257813 29.765625 25.257813 29.3125 C 25.257813 27.289063 29.152344 27.15625 29.152344 29.175781 C 29.152344 29.378906 29.097656 29.480469 29.09375 29.648438 C 29.902344 29.648438 29.789063 29.710938 29.855469 29.410156 C 29.882813 29.296875 29.902344 29.203125 29.921875 29.113281 C 29.988281 28.84375 30.289063 27.429688 30.34375 27.3125 C 29.78125 27.011719 28.871094 26.894531 28.09375 26.894531 C 26.847656 26.894531 25.40625 27.457031 24.765625 28.097656 C 24.667969 28.191406 24.59375 28.234375 24.5 28.332031 C 24.441406 28.394531 24.4375 28.410156 24.386719 28.472656 C 24 28.929688 23.726563 29.34375 23.617188 29.980469 C 23.597656 30.09375 23.5625 30.332031 23.5625 30.453125 "/>
<path style=" stroke:none;fill-rule:evenodd;fill:rgb(4.299927%,55.699158%,23.498535%);fill-opacity:1;" d="M 59.621094 22.449219 C 59.46875 22.671875 58.996094 22.917969 58.695313 23.019531 C 58.472656 23.09375 58.039063 23.207031 57.785156 23.222656 C 57.648438 23.234375 57.535156 23.253906 57.425781 23.253906 C 57.425781 23.367188 57.421875 23.375 57.453125 23.457031 L 57.84375 23.4375 C 57.910156 23.410156 58.777344 23.382813 59.46875 22.878906 C 59.910156 22.5625 59.574219 22.667969 60.078125 22.597656 C 60.238281 22.574219 60.320313 22.578125 60.472656 22.546875 C 62.78125 22.078125 63.691406 19.070313 63.707031 16.941406 L 63.757813 16.101563 C 63.789063 15.871094 63.765625 15.464844 63.765625 15.21875 L 63.707031 15.21875 C 63.679688 15.585938 62.992188 16.621094 62.761719 16.941406 C 61.332031 18.542969 59.113281 20.113281 59.621094 22.449219 "/>
<path style=" stroke:none;fill-rule:evenodd;fill:rgb(49.798584%,25.099182%,2.398682%);fill-opacity:1;" d="M 58.09375 20.621094 C 58.664063 20.621094 59.121094 21.082031 59.121094 21.648438 C 59.121094 22.210938 58.664063 22.671875 58.09375 22.671875 C 57.53125 22.671875 57.070313 22.210938 57.070313 21.648438 C 57.070313 21.082031 57.53125 20.621094 58.09375 20.621094 "/>
<path style=" stroke:none;fill-rule:evenodd;fill:rgb(4.299927%,55.699158%,23.498535%);fill-opacity:1;" d="M 62.089844 41.570313 L 61.527344 42.6875 L 10.207031 42.6875 L 10.207031 42.480469 C 12.878906 42.664063 14.636719 42.304688 15.777344 41.574219 L 62.089844 41.570313 "/>
</g>
</svg>
